<svg width="64" height="64" viewBox="0 0 64 64" fill="none" xmlns="http://www.w3.org/2000/svg">
  <rect width="64" height="64" rx="18" fill="#07090D"/>
  <rect x="1" y="1" width="62" height="62" rx="17" stroke="url(#border)" stroke-width="2"/>
  <path d="M18 42L27.5 18H34.8L44 42H37.2L35.5 37.1H26.6L24.9 42H18Z" fill="url(#mark)"/>
  <path d="M28.2 31.8H33.9L31.1 23.5L28.2 31.8Z" fill="#07090D"/>
  <path d="M45.8 18.5L48.1 23.2L53.3 23.9L49.5 27.6L50.4 32.8L45.8 30.3L41.2 32.8L42.1 27.6L38.3 23.9L43.5 23.2L45.8 18.5Z" fill="#12C49F"/>
  <defs>
    <linearGradient id="mark" x1="18" y1="18" x2="44" y2="42" gradientUnits="userSpaceOnUse">
      <stop stop-color="#8FB3FF"/>
      <stop offset="1" stop-color="#4776FF"/>
    </linearGradient>
    <linearGradient id="border" x1="0" y1="0" x2="64" y2="64" gradientUnits="userSpaceOnUse">
      <stop stop-color="#8FB3FF" stop-opacity="0.8"/>
      <stop offset="0.55" stop-color="#4776FF" stop-opacity="0.25"/>
      <stop offset="1" stop-color="#12C49F" stop-opacity="0.7"/>
    </linearGradient>
  </defs>
</svg>
